<svg width="30" height="30" viewBox="0 0 30 30" fill="none" xmlns="http://www.w3.org/2000/svg">
<path d="M25.3125 5.15625H4.68752C4.06592 5.15625 3.46978 5.40318 3.03024 5.84272C2.5907 6.28226 2.34377 6.8784 2.34377 7.5V26.25C2.3419 26.6963 2.46867 27.1338 2.70892 27.5099C2.94917 27.8861 3.29272 28.1851 3.69846 28.3711C4.00992 28.5169 4.34948 28.5929 4.69338 28.5938C5.24372 28.5923 5.77585 28.3964 6.19572 28.0406L6.21799 28.0219L9.84377 24.8438H25.3125C25.9341 24.8438 26.5303 24.5968 26.9698 24.1573C27.4093 23.7177 27.6563 23.1216 27.6563 22.5V7.5C27.6563 6.8784 27.4093 6.28226 26.9698 5.84272C26.5303 5.40318 25.9341 5.15625 25.3125 5.15625ZM24.8438 22.0312H9.66799C9.11623 22.0312 8.58216 22.2258 8.15979 22.5809L8.13752 22.5996L5.15627 25.2117V7.96875H24.8438V22.0312Z" fill="#CAC4D0"/>
</svg>
