<svg width="26" height="20" viewBox="0 0 26 20" fill="none" xmlns="http://www.w3.org/2000/svg">
<path d="M21.4375 20H4.5625C3.52483 20.0001 2.52646 19.6031 1.77221 18.8904C1.01796 18.1778 0.564998 17.2035 0.50625 16.1675L0.5 15.9375V2.8125C0.499912 2.09984 0.770369 1.41372 1.25671 0.892808C1.74305 0.371893 2.40901 0.0550276 3.12 0.00625016L3.3125 2.12484e-08H18.9375C19.6502 -8.75273e-05 20.3363 0.270369 20.8572 0.756711C21.3781 1.24305 21.695 1.90901 21.7438 2.62L21.75 2.8125V3.75H22.6875C23.4002 3.74991 24.0863 4.02037 24.6072 4.50671C25.1281 4.99305 25.445 5.65901 25.4938 6.37L25.5 6.5625V15.9375C25.5001 16.9752 25.1031 17.9735 24.3904 18.7278C23.6778 19.482 22.7035 19.935 21.6675 19.9938L21.4375 20ZM4.5625 18.125H21.4375C21.9867 18.125 22.5158 17.9183 22.9196 17.5462C23.3235 17.174 23.5726 16.6636 23.6175 16.1162L23.625 15.9375V6.5625C23.625 6.33595 23.5429 6.11707 23.394 5.94634C23.2451 5.7756 23.0394 5.66456 22.815 5.63375L22.6875 5.625H21.75V15.3125C21.75 15.539 21.6679 15.7579 21.519 15.9287C21.3701 16.0994 21.1644 16.2104 20.94 16.2412L20.8125 16.25C20.586 16.25 20.3671 16.1679 20.1963 16.019C20.0256 15.8701 19.9146 15.6644 19.8838 15.44L19.875 15.3125V2.8125C19.875 2.58595 19.7929 2.36707 19.644 2.19634C19.4951 2.0256 19.2894 1.91456 19.065 1.88375L18.9375 1.875H3.3125C3.08595 1.87501 2.86707 1.95705 2.69634 2.10596C2.5256 2.25486 2.41456 2.46056 2.38375 2.685L2.375 2.8125V15.9375C2.37502 16.4865 2.58146 17.0154 2.95335 17.4192C3.32524 17.8231 3.83537 18.0723 4.3825 18.1175L4.5625 18.125ZM13.3075 13.125H17.065C17.3025 13.1251 17.5312 13.2153 17.7047 13.3775C17.8783 13.5396 17.9838 13.7616 18 13.9986C18.0162 14.2356 17.9419 14.4699 17.792 14.6541C17.6421 14.8384 17.4278 14.9589 17.1925 14.9913L17.065 15H13.3075C13.07 14.9999 12.8413 14.9097 12.6678 14.7475C12.4942 14.5854 12.3887 14.3634 12.3725 14.1264C12.3563 13.8894 12.4306 13.6551 12.5805 13.4709C12.7304 13.2866 12.9447 13.1661 13.18 13.1337L13.3075 13.125ZM9.55375 8.75625C9.80239 8.75625 10.0408 8.85502 10.2167 9.03084C10.3925 9.20665 10.4913 9.44511 10.4913 9.69375V14.0625C10.4913 14.3111 10.3925 14.5496 10.2167 14.7254C10.0408 14.9012 9.80239 15 9.55375 15H5.185C4.93636 15 4.6979 14.9012 4.52209 14.7254C4.34627 14.5496 4.2475 14.3111 4.2475 14.0625V9.69375C4.2475 9.44511 4.34627 9.20665 4.52209 9.03084C4.6979 8.85502 4.93636 8.75625 5.185 8.75625H9.55375ZM8.61625 10.6313H6.1225V13.125H8.61625V10.6313ZM13.3075 8.75625H17.065C17.3025 8.75632 17.5312 8.84656 17.7047 9.00872C17.8783 9.17088 17.9838 9.39287 18 9.62985C18.0162 9.86683 17.9419 10.1011 17.792 10.2854C17.6421 10.4696 17.4278 10.5901 17.1925 10.6225L17.065 10.6313H13.3075C13.0683 10.6337 12.8372 10.5446 12.6615 10.3822C12.4859 10.2198 12.3789 9.99633 12.3626 9.75766C12.3463 9.51898 12.4219 9.2831 12.5739 9.09832C12.7258 8.91355 12.9427 8.79385 13.18 8.76375L13.3075 8.75625ZM5.185 4.3775H17.065C17.3042 4.37507 17.5353 4.46418 17.711 4.62659C17.8866 4.789 17.9936 5.01242 18.0099 5.25109C18.0262 5.48977 17.9506 5.72565 17.7986 5.91043C17.6467 6.0952 17.4298 6.2149 17.1925 6.245L17.065 6.2525H5.185C4.94747 6.25243 4.71882 6.1622 4.54526 6.00003C4.3717 5.83787 4.26616 5.61588 4.24997 5.3789C4.23378 5.14192 4.30814 4.90764 4.45804 4.72338C4.60794 4.53912 4.82219 4.41863 5.0575 4.38625L5.185 4.3775Z" fill="#CAC4D0"/>
</svg>
